<svg width="32" height="32" viewBox="0 0 32 32" fill="none" xmlns="http://www.w3.org/2000/svg">
<path fill-rule="evenodd" clip-rule="evenodd" d="M3.83826 3.83829C2.66669 5.00986 2.66669 6.89548 2.66669 10.6667V21.3334C2.66669 25.1046 2.66669 26.9902 3.83826 28.1618C5.00983 29.3334 6.89545 29.3334 10.6667 29.3334H21.3334C25.1046 29.3334 26.9902 29.3334 28.1618 28.1618C29.3334 26.9902 29.3334 25.1046 29.3334 21.3334V10.6667C29.3334 7.54162 29.3334 5.71135 28.6667 4.50925V22.6667C28.3294 22.6667 28.1608 22.6667 27.9986 22.6535C27.1643 22.5855 26.3723 22.2575 25.7342 21.7156C25.6102 21.6102 25.491 21.491 25.2525 21.2525L24.1618 20.1618C22.8284 18.8285 22.1618 18.1618 21.3334 18.1618C20.5049 18.1618 19.8383 18.8285 18.5049 20.1618L18.0889 20.5779C17.1425 21.5243 16.6693 21.9975 16.1482 21.8972C15.6272 21.7968 15.3636 21.1817 14.8364 19.9515L14.3273 18.7638C13.2729 16.3034 12.7457 15.0732 11.7036 14.8725C10.6616 14.6718 9.71515 15.6183 7.82234 17.5111L4.66669 20.6667V3.25159C4.35313 3.40399 4.08044 3.59611 3.83826 3.83829Z" fill="#818899"/>
<path d="M4.16669 10.6666C4.16669 8.7386 4.16987 7.44348 4.29976 6.47741C4.42384 5.55449 4.63829 5.15949 4.89892 4.89886C5.15955 4.63823 5.55455 4.42378 6.47747 4.2997C7.44354 4.16981 8.73866 4.16663 10.6667 4.16663H21.3334C23.2614 4.16663 24.5565 4.16981 25.5226 4.2997C26.4455 4.42378 26.8405 4.63823 27.1011 4.89886L28.1618 3.8382L27.1011 4.89886C27.3618 5.15949 27.5762 5.55449 27.7003 6.47741C27.8302 7.44348 27.8334 8.7386 27.8334 10.6666V21.3333C27.8334 23.2613 27.8302 24.5564 27.7003 25.5225C27.5762 26.4454 27.3618 26.8404 27.1011 27.1011C26.8405 27.3617 26.4455 27.5761 25.5226 27.7002C24.5565 27.8301 23.2614 27.8333 21.3334 27.8333H10.6667C8.73866 27.8333 7.44354 27.8301 6.47747 27.7002C5.55455 27.5761 5.15955 27.3617 4.89892 27.1011L3.84101 28.159L4.89892 27.1011C4.63829 26.8404 4.42384 26.4454 4.29976 25.5225C4.16987 24.5564 4.16669 23.2613 4.16669 21.3333V10.6666Z" stroke="#818899" stroke-width="3"/>
<ellipse cx="20" cy="12" rx="2.66667" ry="2.66667" fill="#818899"/>
</svg>
